<?xml version="1.0" encoding="UTF-8" standalone="no"?>
<!DOCTYPE svg PUBLIC "-//W3C//DTD SVG 1.1//EN" "http://www.w3.org/Graphics/SVG/1.1/DTD/svg11.dtd">
<svg width="100%" height="100%" viewBox="0 0 900 900" version="1.1" xmlns="http://www.w3.org/2000/svg" xmlns:xlink="http://www.w3.org/1999/xlink" xml:space="preserve" xmlns:serif="http://www.serif.com/" style="fill-rule:evenodd;clip-rule:evenodd;stroke-linejoin:round;stroke-miterlimit:2;">
    <g transform="matrix(1.38059,0,0,1.38059,-2852.25,-130.936)">
        <text x="2271.08px" y="500.598px" style="font-family:'CenturyGothic-BoldItalic', 'Century Gothic', sans-serif;font-weight:700;font-style:italic;font-size:132.515px;fill:white;">jays</text>
    </g>
    <g transform="matrix(1.21471,0,0,1.21471,86.3087,-15.6421)">
        <path d="M393.845,249.339C383.165,291.208 345.174,322.207 300,322.207C253.703,322.207 214.951,289.649 205.412,246.206L283.688,129.896C288.992,128.994 294.441,128.525 300,128.525C303.88,128.525 307.708,128.754 311.465,129.198L393.845,249.339ZM367.83,288.153C350.524,305.045 272.595,331.15 290.358,310.885C346.642,246.672 268.515,252.016 228.706,286.217L296.756,188.154L367.83,288.153Z" style="fill:white;"/>
    </g>
    <g transform="matrix(1.21471,0,0,1.21471,86.3087,-15.6421)">
        <path d="M169.599,298.884C157.668,277.396 150.872,252.671 150.872,226.372C150.872,143.748 217.952,76.667 300.576,76.667C383.2,76.667 450.281,143.748 450.281,226.372C450.281,253.059 443.282,278.125 431.025,299.827L592.212,543.564L7.788,543.564L169.599,298.884ZM233.048,321.242L214.202,348.627C238.617,365.916 268.419,376.076 300.576,376.076C339.781,376.076 375.487,360.973 402.188,336.271L523.014,506.271L76.456,508.567L191.076,343.396L190.743,343.167L216.369,305.93C197.597,284.991 186.128,257.046 186.128,226.372C186.128,161.508 237.411,108.847 300.576,108.847C363.742,108.847 415.024,161.508 415.024,226.372C415.024,291.235 363.742,343.896 300.576,343.896C275.329,343.896 251.98,335.483 233.048,321.242Z" style="fill:white;"/>
    </g>
</svg>
